<svg class="open" width="27" height="23" viewBox="0 0 27 23" fill="none" xmlns="http://www.w3.org/2000/svg">
    <path d="M26.1328 0.15625H0.867188C0.725391 0.15625 0.609375 0.272266 0.609375 0.414062V2.47656C0.609375 2.61836 0.725391 2.73438 0.867188 2.73438H26.1328C26.2746 2.73438 26.3906 2.61836 26.3906 2.47656V0.414062C26.3906 0.272266 26.2746 0.15625 26.1328 0.15625ZM26.1328 20.2656H0.867188C0.725391 20.2656 0.609375 20.3816 0.609375 20.5234V22.5859C0.609375 22.7277 0.725391 22.8438 0.867188 22.8438H26.1328C26.2746 22.8438 26.3906 22.7277 26.3906 22.5859V20.5234C26.3906 20.3816 26.2746 20.2656 26.1328 20.2656ZM26.1328 10.2109H0.867188C0.725391 10.2109 0.609375 10.327 0.609375 10.4688V12.5312C0.609375 12.673 0.725391 12.7891 0.867188 12.7891H26.1328C26.2746 12.7891 26.3906 12.673 26.3906 12.5312V10.4688C26.3906 10.327 26.2746 10.2109 26.1328 10.2109Z" fill="black"/>
</svg>
<svg class="close" width="20" height="20" viewBox="0 0 20 20" fill="none" xmlns="http://www.w3.org/2000/svg">
    <path d="M10 10L19 19M1 19L10 10L1 19ZM19 1L9.99828 10L19 1ZM9.99828 10L1 1L9.99828 10Z" stroke="black" stroke-width="2" stroke-linecap="round" stroke-linejoin="round"/>
</svg>