<svg width="25" height="24" viewBox="0 0 25 24" fill="none" xmlns="http://www.w3.org/2000/svg">
<path d="M23.7508 6.78602V5.21402H21.9118V1.96877C21.909 1.6584 21.7831 1.36184 21.5618 1.14418C21.3405 0.926522 21.042 0.805534 20.7316 0.80777H4.27011C3.95973 0.805534 3.66115 0.926522 3.43987 1.14418C3.2186 1.36184 3.09272 1.6584 3.08984 1.96877V22.125C3.09272 22.4354 3.2186 22.7319 3.43987 22.9496C3.66115 23.1673 3.95973 23.2883 4.27011 23.286H20.7316C21.042 23.2883 21.3405 23.1673 21.5618 22.9496C21.7831 22.7319 21.909 22.4354 21.9118 22.125V18.786H23.7508V17.214H21.9118V12.786H23.7508V11.214H21.9118V6.78602H23.7508ZM20.3398 11.214H18.1258V12.786H20.3398V17.214H18.1258V18.786H20.3398V21.714H4.66184V2.37977H20.3398V5.21402H18.1258V6.78602H20.3398V11.214Z" fill="#CB5715"/>
<path d="M15.2018 14.3871L13.8544 13.5112L14.5022 11.9337V9.45534C14.5022 8.63839 14.1777 7.85489 13.6 7.27721C13.0223 6.69954 12.2388 6.375 11.4219 6.375C10.6049 6.375 9.82142 6.69954 9.24375 7.27721C8.66607 7.85489 8.34153 8.63839 8.34153 9.45534V11.919L8.93783 13.5448L7.64193 14.3871C7.31964 14.5957 7.05482 14.8818 6.87171 15.2193C6.68859 15.5567 6.59303 15.9346 6.59375 16.3185V18.75H16.25V16.3185C16.2507 15.9346 16.1552 15.5567 15.972 15.2193C15.7889 14.8818 15.5241 14.5957 15.2018 14.3871ZM14.75 17.25H8.09375V16.3185C8.09351 16.1846 8.12684 16.0528 8.19072 15.9351C8.25459 15.8174 8.34696 15.7176 8.45938 15.6448L10.7578 14.1508L9.84154 11.6524V9.45534C9.84154 9.03621 10.008 8.63424 10.3044 8.33787C10.6008 8.0415 11.0027 7.875 11.4219 7.875C11.841 7.875 12.243 8.0415 12.5394 8.33787C12.8357 8.63424 13.0022 9.03621 13.0022 9.45534V11.6377L11.9944 14.0915L14.3844 15.6448C14.4968 15.7176 14.5892 15.8174 14.653 15.9351C14.7169 16.0528 14.7503 16.1846 14.75 16.3185V17.25Z" fill="#CB5715"/>
</svg>
