
<svg width="12" height="10" viewBox="0 0 12 10" fill="none" xmlns="http://www.w3.org/2000/svg">
    <path d="M5.52055 9.41521C5.57407 9.49293 5.64568 9.55648 5.72921 9.60038C5.81274 9.64429 5.90569 9.66723 6.00005 9.66723C6.09442 9.66723 6.18737 9.64429 6.2709 9.60038C6.35443 9.55648 6.42604 9.49293 6.47955 9.41521L11.7296 1.83188C11.7903 1.74441 11.826 1.64196 11.8326 1.53566C11.8392 1.42936 11.8166 1.32328 11.7672 1.22894C11.7177 1.1346 11.6434 1.0556 11.5522 1.00054C11.4611 0.945482 11.3566 0.916459 11.2501 0.916627H0.750055C0.643797 0.917066 0.539669 0.946462 0.448868 1.00166C0.358068 1.05685 0.284031 1.13575 0.23472 1.22987C0.185408 1.324 0.162688 1.42978 0.169002 1.53585C0.175316 1.64192 0.210425 1.74427 0.270555 1.83188L5.52055 9.41521Z" fill="#BDBDBD"></path>
</svg>