<svg width="18" height="18" viewBox="0 0 18 18" fill="none"
    xmlns="http://www.w3.org/2000/svg">
    <g clip-path="url(#clip0_1972_1969)">
        <path
            d="M3.66513 7.18224C3.69362 6.82723 3.85479 6.49597 4.11653 6.25444C4.37828 6.01291 4.72139 5.87883 5.07755 5.87891H13.6186C13.9748 5.87883 14.3179 6.01291 14.5796 6.25444C14.8414 6.49597 15.0026 6.82723 15.031 7.18224L15.5998 14.2656C15.6155 14.4605 15.5906 14.6566 15.5268 14.8414C15.4629 15.0262 15.3615 15.1959 15.2289 15.3396C15.0963 15.4833 14.9353 15.598 14.7562 15.6765C14.5771 15.755 14.3837 15.7955 14.1881 15.7956H4.50805C4.31249 15.7955 4.11907 15.755 3.93995 15.6765C3.76083 15.598 3.5999 15.4833 3.46729 15.3396C3.33468 15.1959 3.23326 15.0262 3.16942 14.8414C3.10558 14.6566 3.08069 14.4605 3.09634 14.2656L3.66513 7.18224V7.18224Z"
            stroke="white" stroke-width="2" stroke-linecap="round"
            stroke-linejoin="round" />
        <path
            d="M12.1813 8.00391V4.46224C12.1813 3.71079 11.8828 2.99012 11.3515 2.45877C10.8201 1.92742 10.0994 1.62891 9.34798 1.62891C8.59654 1.62891 7.87587 1.92742 7.34451 2.45877C6.81316 2.99012 6.51465 3.71079 6.51465 4.46224V8.00391"
            stroke="white" stroke-width="2" stroke-linecap="round"
            stroke-linejoin="round" />
    </g>
    <defs>
        <clipPath id="clip0_1972_1969">
            <rect width="17" height="17" fill="white"
                transform="translate(0.847656 0.21228)" />
        </clipPath>
    </defs>
</svg>