<svg width="25" height="26" viewBox="0 0 25 26" fill="none" xmlns="http://www.w3.org/2000/svg">
  <path
    d="M4.14294 10.75C4.18484 10.228 4.42185 9.74082 4.80677 9.38563C5.19169 9.03044 5.69627 8.83327 6.22002 8.83337H18.7804C19.3042 8.83327 19.8088 9.03044 20.1937 9.38563C20.5786 9.74082 20.8156 10.228 20.8575 10.75L21.694 21.1667C21.717 21.4534 21.6804 21.7417 21.5865 22.0135C21.4926 22.2853 21.3435 22.5348 21.1485 22.7461C20.9534 22.9575 20.7168 23.1262 20.4534 23.2416C20.19 23.357 19.9055 23.4166 19.6179 23.4167H5.38252C5.09494 23.4166 4.81049 23.357 4.54709 23.2416C4.28368 23.1262 4.04701 22.9575 3.852 22.7461C3.65698 22.5348 3.50784 22.2853 3.41395 22.0135C3.32007 21.7417 3.28348 21.4534 3.30648 21.1667L4.14294 10.75V10.75Z"
    stroke="white" stroke-width="2" stroke-linecap="round" stroke-linejoin="round" />
  <path
    d="M16.6668 11.9584V6.75004C16.6668 5.64497 16.2278 4.58516 15.4464 3.80376C14.665 3.02236 13.6052 2.58337 12.5002 2.58337C11.3951 2.58337 10.3353 3.02236 9.55388 3.80376C8.77248 4.58516 8.3335 5.64497 8.3335 6.75004V11.9584"
    stroke="white" stroke-width="2" stroke-linecap="round" stroke-linejoin="round" />
</svg>