<svg width="34" height="22" viewBox="0 0 34 22" fill="none" xmlns="http://www.w3.org/2000/svg">
    <path d="M31.0958 21.0045C30.8907 21.0039 30.6895 20.9479 30.5135 20.8425C30.3375 20.737 30.1933 20.5859 30.096 20.4053C29.9988 20.2246 29.9522 20.021 29.9611 19.816C29.97 19.6111 30.0341 19.4123 30.1467 19.2407C31.1922 17.6909 31.7404 15.8677 31.7404 13.9722C31.7404 12.0767 31.1922 10.2534 30.1467 8.70074C30.0637 8.57782 30.0058 8.43975 29.9763 8.29443C29.9468 8.14911 29.9463 7.99939 29.9747 7.85386C30.0031 7.70832 30.06 7.56982 30.142 7.44628C30.224 7.32274 30.3296 7.21659 30.4527 7.13391C30.5756 7.05057 30.7137 6.9923 30.8592 6.96244C31.0047 6.93257 31.1546 6.93169 31.3004 6.95985C31.4462 6.98801 31.585 7.04466 31.7089 7.12655C31.8328 7.20844 31.9393 7.31396 32.0223 7.43707C33.318 9.37343 34.0065 11.6522 34 13.9821C34.0061 16.3114 33.3175 18.5896 32.0223 20.5257C31.929 20.684 31.7951 20.8146 31.6345 20.904C31.4739 20.9933 31.2923 21.0383 31.1086 21.0342L31.0958 21.0045V21.0045ZM27.8517 19.1713C27.6264 19.1711 27.4066 19.1025 27.2212 18.9744C27.0978 18.8941 26.9917 18.7899 26.9092 18.6678C26.8268 18.5458 26.7697 18.4084 26.7413 18.2639C26.7129 18.1194 26.7137 17.9706 26.7439 17.8265C26.774 17.6823 26.8328 17.5456 26.9167 17.4246C27.6103 16.4109 27.9794 15.2103 27.9749 13.9821C27.9749 12.7708 27.6094 11.5808 26.9167 10.5382C26.5653 10.0282 26.6985 9.32833 27.2212 8.98691C27.744 8.64549 28.4353 8.77441 28.7881 9.30566C29.7279 10.6912 30.2316 12.3263 30.2345 14.0005C30.2345 15.7019 29.7358 17.3155 28.7881 18.6967C28.689 18.8551 28.5508 18.9852 28.3867 19.0745C28.2227 19.1638 28.0384 19.2094 27.8517 19.2067V19.1713ZM22.5675 9.03791C22.3455 6.82517 21.3094 4.77381 19.6602 3.28194C18.011 1.79008 15.8663 0.964106 13.6425 0.964325C11.7717 0.966816 9.94815 1.55262 8.42589 2.64017C6.90362 3.72772 5.75836 5.26289 5.14958 7.03191C2.24967 7.45974 0 9.96441 0 12.9833C0.00374848 14.582 0.641051 16.1139 1.77226 17.2436C2.90348 18.3732 4.43635 19.0083 6.035 19.0098H21.488C22.8256 19.0098 24.1086 18.4793 25.0557 17.5347C26.0027 16.59 26.5365 15.3084 26.5398 13.9707C26.5398 11.5539 24.8398 9.53799 22.5661 9.04074V9.03791H22.5675ZM21.488 16.7531H6.03925C5.03925 16.7527 4.08009 16.3564 3.37153 15.6507C2.66296 14.9451 2.26266 13.9876 2.25817 12.9876C2.26042 11.9869 2.66 11.0281 3.36905 10.3219C4.0781 9.61581 5.03857 9.22019 6.03925 9.22207C7.04508 9.22207 7.99567 9.62582 8.71108 10.3285C8.8152 10.4341 8.93927 10.5179 9.07607 10.5751C9.21287 10.6324 9.35967 10.6618 9.50796 10.6618C9.65624 10.6618 9.80305 10.6324 9.93985 10.5751C10.0767 10.5179 10.2007 10.4341 10.3048 10.3285C10.7298 9.90207 10.7298 9.17957 10.3048 8.73474C9.53414 7.97089 8.57292 7.42742 7.52108 7.16082C8.05282 5.98922 8.91075 4.99556 9.99229 4.29865C11.0738 3.60174 12.3332 3.23108 13.6198 3.23099C15.3991 3.23473 17.1045 3.94302 18.3629 5.2009C19.6213 6.45878 20.3303 8.16387 20.3348 9.94316C20.3348 10.6685 20.2286 11.3683 19.9948 12.0483C19.9411 12.2186 19.9273 12.399 19.9547 12.5755C19.9821 12.7519 20.0498 12.9197 20.1526 13.0657C20.2554 13.2117 20.3906 13.332 20.5475 13.4172C20.7044 13.5025 20.8789 13.5503 21.0573 13.5571C21.2923 13.5573 21.5214 13.4835 21.7121 13.3462C21.9028 13.2088 22.0455 13.015 22.1198 12.7921C22.2686 12.3458 22.3748 11.8996 22.4386 11.4321C22.9616 11.6356 23.4114 11.9916 23.7297 12.4539C24.048 12.9161 24.2201 13.4633 24.2236 14.0246C24.2258 14.7654 23.9339 15.4768 23.4119 16.0025C22.89 16.5282 22.1806 16.8252 21.4398 16.8282L21.488 16.7531V16.7531Z" fill="white"></path>
</svg>