<svg width="21" height="20" viewBox="0 0 21 20" fill="none" xmlns="http://www.w3.org/2000/svg">
    <path
        d="M20.5 9.99C20.5 4.475 16.02 0 10.5 0C4.98 0 0.5 4.475 0.5 9.99C0.5 13.0275 1.88 15.765 4.04 17.6025C4.06 17.6225 4.08 17.6225 4.08 17.6425C4.26 17.7825 4.44 17.9225 4.64 18.0625C4.74 18.1225 4.82 18.2013 4.92 18.2812C6.57258 19.4017 8.52339 20.0004 10.52 20C12.5166 20.0004 14.4674 19.4017 16.12 18.2812C16.22 18.2213 16.3 18.1425 16.4 18.0812C16.58 17.9425 16.78 17.8025 16.96 17.6625C16.98 17.6425 17 17.6425 17 17.6225C19.12 15.7637 20.5 13.0275 20.5 9.99ZM10.5 18.7412C8.62 18.7412 6.9 18.1413 5.48 17.1425C5.5 16.9825 5.54 16.8237 5.58 16.6637C5.69917 16.2301 5.87396 15.8138 6.1 15.425C6.32 15.045 6.58 14.705 6.9 14.405C7.2 14.105 7.56 13.8263 7.92 13.6063C8.3 13.3863 8.7 13.2262 9.14 13.1062C9.58342 12.9867 10.0408 12.9266 10.5 12.9275C11.8633 12.9178 13.1765 13.4408 14.16 14.385C14.62 14.845 14.98 15.385 15.24 16.0037C15.38 16.3638 15.48 16.7437 15.54 17.1425C14.064 18.1802 12.3043 18.7384 10.5 18.7412ZM7.44 9.49125C7.26378 9.08778 7.17516 8.6515 7.18 8.21125C7.18 7.7725 7.26 7.3325 7.44 6.9325C7.62 6.5325 7.86 6.17375 8.16 5.87375C8.46 5.57375 8.82 5.335 9.22 5.155C9.62 4.975 10.06 4.895 10.5 4.895C10.96 4.895 11.38 4.975 11.78 5.155C12.18 5.335 12.54 5.575 12.84 5.87375C13.14 6.17375 13.38 6.53375 13.56 6.9325C13.74 7.3325 13.82 7.7725 13.82 8.21125C13.82 8.67125 13.74 9.09125 13.56 9.49C13.3863 9.88408 13.1423 10.2433 12.84 10.55C12.5332 10.8519 12.174 11.0954 11.78 11.2688C10.9535 11.6084 10.0265 11.6084 9.2 11.2688C8.80602 11.0954 8.44684 10.8519 8.14 10.55C7.83727 10.2477 7.59912 9.8871 7.44 9.49V9.49125ZM16.72 16.1238C16.72 16.0837 16.7 16.0638 16.7 16.0238C16.5033 15.398 16.2134 14.8055 15.84 14.2663C15.4663 13.723 15.007 13.2438 14.48 12.8475C14.0775 12.5447 13.6413 12.2897 13.18 12.0875C13.3899 11.9491 13.5843 11.7886 13.76 11.6087C14.0582 11.3144 14.32 10.9854 14.54 10.6287C14.9829 9.90101 15.2117 9.06311 15.2 8.21125C15.2062 7.58064 15.0837 6.9554 14.84 6.37375C14.5994 5.8133 14.2531 5.30445 13.82 4.875C13.3876 4.45004 12.8786 4.11074 12.32 3.875C11.7374 3.63174 11.1113 3.50968 10.48 3.51625C9.84859 3.51007 9.22253 3.63256 8.64 3.87625C8.07657 4.11148 7.56639 4.45798 7.14 4.895C6.71505 5.32698 6.37574 5.83552 6.14 6.39375C5.89631 6.9754 5.77381 7.60064 5.78 8.23125C5.78 8.67125 5.84 9.09125 5.96 9.49C6.08 9.91 6.24 10.29 6.46 10.6488C6.66 11.0087 6.94 11.3288 7.24 11.6288C7.42 11.8088 7.62 11.9675 7.84 12.1075C7.37729 12.3151 6.9409 12.5769 6.54 12.8875C6.02 13.2875 5.56 13.7662 5.18 14.2863C4.80282 14.8233 4.5126 15.4164 4.32 16.0438C4.3 16.0837 4.3 16.1238 4.3 16.1437C2.72 14.545 1.74 12.3875 1.74 9.99C1.74 5.175 5.68 1.23875 10.5 1.23875C15.32 1.23875 19.26 5.175 19.26 9.99C19.2574 12.2899 18.3441 14.4953 16.72 16.1238Z"
        fill="#CB5715" />
</svg>