<svg width="21" height="16" viewBox="0 0 21 16" fill="none" xmlns="http://www.w3.org/2000/svg">
<path d="M20.8002 13.4V2.60005C20.8002 1.60405 19.9962 0.800049 19.0002 0.800049H2.18818C1.19218 0.800049 0.388184 1.60405 0.388184 2.60005V13.4C0.388184 14.396 1.19218 15.2 2.18818 15.2H19.0002C19.9962 15.2 20.8002 14.396 20.8002 13.4ZM19.2282 2.46805C19.6242 2.86405 19.4082 3.27205 19.1922 3.47605L14.3202 7.94005L19.0002 12.812C19.1442 12.98 19.2402 13.2441 19.0722 13.4241C18.9162 13.616 18.5562 13.604 18.4002 13.484L13.1562 9.00805L10.5882 11.348L8.03218 9.00805L2.78818 13.484C2.63218 13.604 2.27218 13.616 2.11618 13.4241C1.94818 13.2441 2.04418 12.98 2.18818 12.812L6.86818 7.94005L1.99618 3.47605C1.78018 3.27205 1.56418 2.86405 1.96018 2.46805C2.35618 2.07205 2.76418 2.26405 3.10018 2.55205L10.5882 8.60005L18.0882 2.55205C18.4242 2.26405 18.8322 2.07205 19.2282 2.46805Z" fill="black"/>
</svg>
