<svg width="75" height="16" viewBox="0 0 75 16" fill="none"
     xmlns="http://www.w3.org/2000/svg">
    <path
            d="M13.3024 5.67237L9.58318 5.13184L7.92058 1.76124C7.87517 1.66895 7.80047 1.59424 7.70818 1.54883C7.47674 1.43458 7.19548 1.52979 7.07976 1.76124L5.41716 5.13184L1.69793 5.67237C1.59539 5.68702 1.50164 5.73536 1.42986 5.8086C1.34309 5.89779 1.29527 6.01778 1.29692 6.14221C1.29856 6.26663 1.34954 6.38531 1.43865 6.47217L4.12957 9.09571L3.49382 12.8003C3.47892 12.8865 3.48845 12.9751 3.52135 13.0561C3.55425 13.1372 3.6092 13.2074 3.67996 13.2588C3.75072 13.3102 3.83447 13.3407 3.92171 13.3469C4.00894 13.3531 4.09617 13.3348 4.17351 13.294L7.50017 11.5449L10.8268 13.294C10.9177 13.3423 11.0231 13.3584 11.1242 13.3408C11.3791 13.2969 11.5505 13.0552 11.5065 12.8003L10.8708 9.09571L13.5617 6.47217C13.6349 6.4004 13.6833 6.30665 13.6979 6.20411C13.7375 5.94776 13.5588 5.71045 13.3024 5.67237Z"
            fill="#222222" />
    <path
            d="M28.3024 5.67237L24.5832 5.13184L22.9206 1.76124C22.8752 1.66895 22.8005 1.59424 22.7082 1.54883C22.4767 1.43458 22.1955 1.52979 22.0798 1.76124L20.4172 5.13184L16.6979 5.67237C16.5954 5.68702 16.5016 5.73536 16.4299 5.8086C16.3431 5.89779 16.2953 6.01778 16.2969 6.14221C16.2986 6.26663 16.3495 6.38531 16.4386 6.47217L19.1296 9.09571L18.4938 12.8003C18.4789 12.8865 18.4885 12.9751 18.5214 13.0561C18.5543 13.1372 18.6092 13.2074 18.68 13.2588C18.7507 13.3102 18.8345 13.3407 18.9217 13.3469C19.0089 13.3531 19.0962 13.3348 19.1735 13.294L22.5002 11.5449L25.8268 13.294C25.9177 13.3423 26.0231 13.3584 26.1242 13.3408C26.3791 13.2969 26.5505 13.0552 26.5065 12.8003L25.8708 9.09571L28.5617 6.47217C28.6349 6.4004 28.6833 6.30665 28.6979 6.20411C28.7375 5.94776 28.5588 5.71045 28.3024 5.67237Z"
            fill="#222222" />
    <path
            d="M43.3024 5.67237L39.5832 5.13184L37.9206 1.76124C37.8752 1.66895 37.8005 1.59424 37.7082 1.54883C37.4767 1.43458 37.1955 1.52979 37.0798 1.76124L35.4172 5.13184L31.6979 5.67237C31.5954 5.68702 31.5016 5.73536 31.4299 5.8086C31.3431 5.89779 31.2953 6.01778 31.2969 6.14221C31.2986 6.26663 31.3495 6.38531 31.4386 6.47217L34.1296 9.09571L33.4938 12.8003C33.4789 12.8865 33.4885 12.9751 33.5214 13.0561C33.5543 13.1372 33.6092 13.2074 33.68 13.2588C33.7507 13.3102 33.8345 13.3407 33.9217 13.3469C34.0089 13.3531 34.0962 13.3348 34.1735 13.294L37.5002 11.5449L40.8268 13.294C40.9177 13.3423 41.0231 13.3584 41.1242 13.3408C41.3791 13.2969 41.5505 13.0552 41.5065 12.8003L40.8708 9.09571L43.5617 6.47217C43.6349 6.4004 43.6833 6.30665 43.6979 6.20411C43.7375 5.94776 43.5588 5.71045 43.3024 5.67237Z"
            fill="#222222" />
    <path
            d="M58.3024 5.67237L54.5832 5.13184L52.9206 1.76124C52.8752 1.66895 52.8005 1.59424 52.7082 1.54883C52.4767 1.43458 52.1955 1.52979 52.0798 1.76124L50.4172 5.13184L46.6979 5.67237C46.5954 5.68702 46.5016 5.73536 46.4299 5.8086C46.3431 5.89779 46.2953 6.01778 46.2969 6.14221C46.2986 6.26663 46.3495 6.38531 46.4386 6.47217L49.1296 9.09571L48.4938 12.8003C48.4789 12.8865 48.4885 12.9751 48.5214 13.0561C48.5543 13.1372 48.6092 13.2074 48.68 13.2588C48.7507 13.3102 48.8345 13.3407 48.9217 13.3469C49.0089 13.3531 49.0962 13.3348 49.1735 13.294L52.5002 11.5449L55.8268 13.294C55.9177 13.3423 56.0231 13.3584 56.1242 13.3408C56.3791 13.2969 56.5505 13.0552 56.5065 12.8003L55.8708 9.09571L58.5617 6.47217C58.6349 6.4004 58.6833 6.30665 58.6979 6.20411C58.7375 5.94776 58.5588 5.71045 58.3024 5.67237Z"
            fill="#222222" />
    <path
            d="M73.3024 5.67237L69.5832 5.13184L67.9206 1.76124C67.8752 1.66895 67.8005 1.59424 67.7082 1.54883C67.4767 1.43458 67.1955 1.52979 67.0798 1.76124L65.4172 5.13184L61.6979 5.67237C61.5954 5.68702 61.5016 5.73536 61.4299 5.8086C61.3431 5.89779 61.2953 6.01778 61.2969 6.14221C61.2986 6.26663 61.3495 6.38531 61.4386 6.47217L64.1296 9.09571L63.4938 12.8003C63.4789 12.8865 63.4885 12.9751 63.5214 13.0561C63.5543 13.1372 63.6092 13.2074 63.68 13.2588C63.7507 13.3102 63.8345 13.3407 63.9217 13.3469C64.0089 13.3531 64.0962 13.3348 64.1735 13.294L67.5002 11.5449L70.8268 13.294C70.9177 13.3423 71.0231 13.3584 71.1242 13.3408C71.3791 13.2969 71.5505 13.0552 71.5065 12.8003L70.8708 9.09571L73.5617 6.47217C73.6349 6.4004 73.6833 6.30665 73.6979 6.20411C73.7375 5.94776 73.5588 5.71045 73.3024 5.67237Z"
            fill="#222222" />
</svg>