<svg width="11" height="16" viewBox="0 0 11 16" fill="none" xmlns="http://www.w3.org/2000/svg">
    <path
            d="M9.95287 0.706139C10.1879 0.922688 10.32 1.21635 10.32 1.52255C10.32 1.82875 10.1879 2.12242 9.95287 2.33897L3.74644 8.05501L9.95287 13.7711C10.1813 13.9889 10.3076 14.2805 10.3048 14.5833C10.3019 14.8861 10.1701 15.1757 9.93759 15.3898C9.70512 15.6039 9.39065 15.7254 9.0619 15.728C8.73315 15.7306 8.41643 15.6142 8.17996 15.4039L1.08707 8.87143C0.852018 8.65488 0.719971 8.36121 0.719971 8.05501C0.719971 7.74881 0.852018 7.45515 1.08707 7.2386L8.17996 0.706139C8.41509 0.489656 8.73394 0.368042 9.06641 0.368042C9.39888 0.368042 9.71774 0.489656 9.95287 0.706139Z"
            fill="#CB5715" />
</svg>