<svg width="21" height="20" viewBox="0 0 21 20" fill="none" xmlns="http://www.w3.org/2000/svg">
  <path
      d="M10.5 1.30551e-06C4.98583 1.30551e-06 0.5 4.48583 0.5 10C0.5 15.5142 4.98583 20 10.5 20C13.875 20 16.8667 18.3233 18.6775 15.755L17.3233 14.7917C16.5547 15.8872 15.5331 16.7812 14.3452 17.3978C13.1574 18.0143 11.8383 18.3352 10.5 18.3333C5.8875 18.3333 2.16667 14.6125 2.16667 10C2.16667 5.3875 5.8875 1.66667 10.5 1.66667C11.8383 1.66511 13.1572 1.98619 14.345 2.60272C15.5328 3.21924 16.5544 4.11303 17.3233 5.20833L18.6775 4.245C17.7553 2.93296 16.5308 1.86225 15.1074 1.12337C13.684 0.384497 12.1037 -0.000818523 10.5 1.30551e-06V1.30551e-06ZM16.62 6.0675L15.4217 7.26583L17.3233 9.16667H7.16667V10.8333H17.3233L15.4217 12.7342L16.62 13.9325L19.9533 10.5992L20.525 10L19.9525 9.40083L16.62 6.0675Z"
      fill="#CB5715" />
</svg>