<svg width="75" height="16" viewBox="0 0 75 16" fill="none"
     xmlns="http://www.w3.org/2000/svg">
    <path
            d="M13.3024 5.67237L9.58318 5.13184L7.92058 1.76124C7.87517 1.66895 7.80047 1.59424 7.70818 1.54883C7.47674 1.43458 7.19548 1.52979 7.07976 1.76124L5.41716 5.13184L1.69793 5.67237C1.59539 5.68702 1.50164 5.73536 1.42986 5.8086C1.34309 5.89779 1.29527 6.01778 1.29692 6.14221C1.29856 6.26663 1.34954 6.38531 1.43865 6.47217L4.12957 9.09571L3.49382 12.8003C3.47892 12.8865 3.48845 12.9751 3.52135 13.0561C3.55425 13.1372 3.6092 13.2074 3.67996 13.2588C3.75072 13.3102 3.83447 13.3407 3.92171 13.3469C4.00894 13.3531 4.09617 13.3348 4.17351 13.294L7.50017 11.5449L10.8268 13.294C10.9177 13.3423 11.0231 13.3584 11.1242 13.3408C11.3791 13.2969 11.5505 13.0552 11.5065 12.8003L10.8708 9.09571L13.5617 6.47217C13.6349 6.4004 13.6833 6.30665 13.6979 6.20411C13.7375 5.94776 13.5588 5.71045 13.3024 5.67237Z"
            fill="#222222" />
    <path
            d="M22.3826 2.33804L21.097 5.89915L21.0933 5.90939L21.0932 5.90935C21.0117 6.12062 20.868 6.30215 20.681 6.42994C20.4944 6.55755 20.2734 6.62555 20.0473 6.625M22.3826 2.33804L20.048 6.125M22.3826 2.33804C22.3847 2.33303 22.3867 2.32798 22.3886 2.32289C22.4001 2.29268 22.4151 2.27816 22.4292 2.26907C22.446 2.25819 22.4706 2.25 22.4996 2.25C22.5287 2.25 22.5533 2.25819 22.5704 2.26917C22.5842 2.27808 22.5988 2.29216 22.6102 2.32069L23.9021 5.89915L23.902 5.8992L23.906 5.90967C23.9876 6.12075 24.1313 6.30212 24.3181 6.42983C24.5047 6.55738 24.7256 6.62542 24.9516 6.625M22.3826 2.33804L25.5674 10.0701M20.0473 6.625C20.047 6.625 20.0467 6.625 20.0463 6.625L20.048 6.125M20.0473 6.625H20.048V6.125M20.0473 6.625H16.8686C16.8301 6.625 16.8089 6.6357 16.7957 6.64556C16.7798 6.65743 16.7651 6.67642 16.7565 6.70092C16.7479 6.72541 16.7481 6.74776 16.7525 6.76414C16.7559 6.77705 16.7642 6.79639 16.7935 6.81904C16.8032 6.82657 16.8126 6.83445 16.8218 6.84268L19.0721 8.86731M20.048 6.125H16.8686C16.2824 6.125 16.0249 6.85625 16.4874 7.21438L18.7499 9.25M19.0721 8.86731C19.0663 8.86268 19.0605 8.85811 19.0546 8.8536L18.7499 9.25M19.0721 8.86731L19.0843 8.8783L18.7499 9.25M19.0721 8.86731C19.2482 9.00845 19.3771 9.20028 19.441 9.41712C19.5041 9.63092 19.5009 9.85855 19.4324 10.0701M18.7499 9.25C18.8512 9.32791 18.9253 9.43592 18.9614 9.55854C18.9976 9.68115 18.994 9.81207 18.9511 9.9325M18.9511 9.9325L19.4378 10.0473L19.4324 10.0701M18.9511 9.9325L18.1249 13.4344L22.1405 12.1838M18.9511 9.9325L19.4222 10.1001C19.4257 10.0902 19.4291 10.0802 19.4324 10.0701M19.4324 10.0701L18.6115 13.5492C18.6072 13.5674 18.6019 13.5854 18.5956 13.603C18.5836 13.6365 18.5872 13.6558 18.5914 13.6682C18.597 13.6847 18.6103 13.7054 18.6341 13.7231C18.6579 13.7407 18.6839 13.7491 18.7057 13.75C18.7236 13.7508 18.7477 13.7473 18.7796 13.7249C18.7861 13.7203 18.7927 13.7158 18.7995 13.7116L21.8641 11.767M21.8641 11.767C21.8604 11.7695 21.8567 11.7721 21.853 11.7747L22.1405 12.1838M21.8641 11.767L21.8726 11.7616L22.1405 12.1838M21.8641 11.767C22.0512 11.6388 22.2728 11.5701 22.4999 11.5701C22.7269 11.5701 22.9485 11.6388 23.1356 11.767M22.1405 12.1838C22.2457 12.1098 22.3712 12.0701 22.4999 12.0701C22.6285 12.0701 22.754 12.1098 22.8592 12.1838M23.1356 11.767L23.1271 11.7616L22.8592 12.1838M23.1356 11.767L26.2003 13.7116C26.2069 13.7158 26.2135 13.7202 26.2199 13.7247C26.2521 13.7474 26.2765 13.7509 26.2945 13.7501C26.3164 13.7492 26.3422 13.7408 26.3658 13.7233C26.3895 13.7057 26.4028 13.6851 26.4084 13.6687C26.4126 13.6563 26.4162 13.6367 26.4041 13.6028C26.3978 13.5852 26.3925 13.5673 26.3882 13.5492L25.5674 10.0701M23.1356 11.767C23.1394 11.7695 23.1431 11.7721 23.1467 11.7747L22.8592 12.1838M22.8592 12.1838L25.5674 10.0701M25.5674 10.0701C25.5706 10.0802 25.574 10.0902 25.5776 10.1001L26.0486 9.9325L25.562 10.0473L25.5674 10.0701ZM25.5674 10.0701C25.4988 9.85855 25.4957 9.63092 25.5587 9.41712C25.6227 9.20028 25.7515 9.00844 25.9277 8.86731M25.9277 8.86731L25.9154 8.8783L26.2499 9.25L25.9451 8.8536C25.9393 8.85811 25.9334 8.86268 25.9277 8.86731ZM25.9277 8.86731L28.1779 6.84268C28.187 6.83453 28.1964 6.82671 28.206 6.81924C28.2352 6.79661 28.2436 6.77718 28.2471 6.7641C28.2515 6.74759 28.2516 6.72519 28.2431 6.70078C28.2345 6.67637 28.2199 6.65748 28.204 6.64566C28.1909 6.63585 28.1695 6.625 28.1305 6.625H24.9516M24.9516 6.625C24.9519 6.625 24.9522 6.625 24.9524 6.625L24.9511 6.125V6.625H24.9516Z"
            stroke="#222222" stroke-linecap="round" stroke-linejoin="round" />
    <path
            d="M37.3826 2.33804L36.097 5.89915L36.0933 5.90939L36.0932 5.90935C36.0117 6.12062 35.868 6.30215 35.681 6.42994C35.4944 6.55755 35.2734 6.62555 35.0473 6.625M37.3826 2.33804L35.048 6.125M37.3826 2.33804C37.3847 2.33303 37.3867 2.32798 37.3886 2.32289C37.4001 2.29268 37.4151 2.27816 37.4292 2.26907C37.446 2.25819 37.4706 2.25 37.4996 2.25C37.5287 2.25 37.5533 2.25819 37.5704 2.26917C37.5842 2.27808 37.5988 2.29216 37.6102 2.32069L38.9021 5.89915L38.902 5.8992L38.906 5.90967C38.9876 6.12075 39.1313 6.30212 39.3181 6.42983C39.5047 6.55738 39.7256 6.62542 39.9516 6.625M37.3826 2.33804L40.5674 10.0701M35.0473 6.625C35.047 6.625 35.0467 6.625 35.0463 6.625L35.048 6.125M35.0473 6.625H35.048V6.125M35.0473 6.625H31.8686C31.8301 6.625 31.8089 6.6357 31.7957 6.64556C31.7798 6.65743 31.7651 6.67642 31.7565 6.70092C31.7479 6.72541 31.7481 6.74776 31.7525 6.76414C31.7559 6.77705 31.7642 6.79639 31.7935 6.81904C31.8032 6.82657 31.8126 6.83445 31.8218 6.84268L34.0721 8.86731M35.048 6.125H31.8686C31.2824 6.125 31.0249 6.85625 31.4874 7.21438L33.7499 9.25M34.0721 8.86731C34.0663 8.86268 34.0605 8.85811 34.0546 8.8536L33.7499 9.25M34.0721 8.86731L34.0843 8.8783L33.7499 9.25M34.0721 8.86731C34.2482 9.00845 34.3771 9.20028 34.441 9.41712C34.5041 9.63092 34.5009 9.85855 34.4324 10.0701M33.7499 9.25C33.8512 9.32791 33.9253 9.43592 33.9614 9.55854C33.9976 9.68115 33.994 9.81207 33.9511 9.9325M33.9511 9.9325L34.4378 10.0473L34.4324 10.0701M33.9511 9.9325L33.1249 13.4344L37.1405 12.1838M33.9511 9.9325L34.4222 10.1001C34.4257 10.0902 34.4291 10.0802 34.4324 10.0701M34.4324 10.0701L33.6115 13.5492C33.6072 13.5674 33.6019 13.5854 33.5956 13.603C33.5836 13.6365 33.5872 13.6558 33.5914 13.6682C33.597 13.6847 33.6103 13.7054 33.6341 13.7231C33.6579 13.7407 33.6839 13.7491 33.7057 13.75C33.7236 13.7508 33.7477 13.7473 33.7796 13.7249C33.7861 13.7203 33.7927 13.7158 33.7995 13.7116L36.8641 11.767M36.8641 11.767C36.8604 11.7695 36.8567 11.7721 36.853 11.7747L37.1405 12.1838M36.8641 11.767L36.8726 11.7616L37.1405 12.1838M36.8641 11.767C37.0512 11.6388 37.2728 11.5701 37.4999 11.5701C37.7269 11.5701 37.9485 11.6388 38.1356 11.767M37.1405 12.1838C37.2457 12.1098 37.3712 12.0701 37.4999 12.0701C37.6285 12.0701 37.754 12.1098 37.8592 12.1838M38.1356 11.767L38.1271 11.7616L37.8592 12.1838M38.1356 11.767L41.2003 13.7116C41.2069 13.7158 41.2135 13.7202 41.2199 13.7247C41.2521 13.7474 41.2765 13.7509 41.2945 13.7501C41.3164 13.7492 41.3422 13.7408 41.3658 13.7233C41.3895 13.7057 41.4028 13.6851 41.4084 13.6687C41.4126 13.6563 41.4162 13.6367 41.4041 13.6028C41.3978 13.5852 41.3925 13.5673 41.3882 13.5492L40.5674 10.0701M38.1356 11.767C38.1394 11.7695 38.1431 11.7721 38.1467 11.7747L37.8592 12.1838M37.8592 12.1838L40.5674 10.0701M40.5674 10.0701C40.5706 10.0802 40.574 10.0902 40.5776 10.1001L41.0486 9.9325L40.562 10.0473L40.5674 10.0701ZM40.5674 10.0701C40.4988 9.85855 40.4957 9.63092 40.5587 9.41712C40.6227 9.20028 40.7515 9.00844 40.9277 8.86731M40.9277 8.86731L40.9154 8.8783L41.2499 9.25L40.9451 8.8536C40.9393 8.85811 40.9334 8.86268 40.9277 8.86731ZM40.9277 8.86731L43.1779 6.84268C43.187 6.83453 43.1964 6.82671 43.206 6.81924C43.2352 6.79661 43.2436 6.77718 43.2471 6.7641C43.2515 6.74759 43.2516 6.72519 43.2431 6.70078C43.2345 6.67637 43.2199 6.65748 43.204 6.64566C43.1909 6.63585 43.1695 6.625 43.1305 6.625H39.9516M39.9516 6.625C39.9519 6.625 39.9522 6.625 39.9524 6.625L39.9511 6.125V6.625H39.9516Z"
            stroke="#222222" stroke-linecap="round" stroke-linejoin="round" />
    <path
            d="M52.3826 2.33804L51.097 5.89915L51.0933 5.90939L51.0932 5.90935C51.0117 6.12062 50.868 6.30215 50.681 6.42994C50.4944 6.55755 50.2734 6.62555 50.0473 6.625M52.3826 2.33804L50.048 6.125M52.3826 2.33804C52.3847 2.33303 52.3867 2.32798 52.3886 2.32289C52.4001 2.29268 52.4151 2.27816 52.4292 2.26907C52.446 2.25819 52.4706 2.25 52.4996 2.25C52.5287 2.25 52.5533 2.25819 52.5704 2.26917C52.5842 2.27808 52.5988 2.29216 52.6102 2.32069L53.9021 5.89915L53.902 5.8992L53.906 5.90967C53.9876 6.12075 54.1313 6.30212 54.3181 6.42983C54.5047 6.55738 54.7256 6.62542 54.9516 6.625M52.3826 2.33804L55.5674 10.0701M50.0473 6.625C50.047 6.625 50.0467 6.625 50.0463 6.625L50.048 6.125M50.0473 6.625H50.048V6.125M50.0473 6.625H46.8686C46.8301 6.625 46.8089 6.6357 46.7957 6.64556C46.7798 6.65743 46.7651 6.67642 46.7565 6.70092C46.7479 6.72541 46.7481 6.74776 46.7525 6.76414C46.7559 6.77705 46.7642 6.79639 46.7935 6.81904C46.8032 6.82657 46.8126 6.83445 46.8218 6.84268L49.0721 8.86731M50.048 6.125H46.8686C46.2824 6.125 46.0249 6.85625 46.4874 7.21438L48.7499 9.25M49.0721 8.86731C49.0663 8.86268 49.0605 8.85811 49.0546 8.8536L48.7499 9.25M49.0721 8.86731L49.0843 8.8783L48.7499 9.25M49.0721 8.86731C49.2482 9.00845 49.3771 9.20028 49.441 9.41712C49.5041 9.63092 49.5009 9.85855 49.4324 10.0701M48.7499 9.25C48.8512 9.32791 48.9253 9.43592 48.9614 9.55854C48.9976 9.68115 48.994 9.81207 48.9511 9.9325M48.9511 9.9325L49.4378 10.0473L49.4324 10.0701M48.9511 9.9325L48.1249 13.4344L52.1405 12.1838M48.9511 9.9325L49.4222 10.1001C49.4257 10.0902 49.4291 10.0802 49.4324 10.0701M49.4324 10.0701L48.6115 13.5492C48.6072 13.5674 48.6019 13.5854 48.5956 13.603C48.5836 13.6365 48.5872 13.6558 48.5914 13.6682C48.597 13.6847 48.6103 13.7054 48.6341 13.7231C48.6579 13.7407 48.6839 13.7491 48.7057 13.75C48.7236 13.7508 48.7477 13.7473 48.7796 13.7249C48.7861 13.7203 48.7927 13.7158 48.7995 13.7116L51.8641 11.767M51.8641 11.767C51.8604 11.7695 51.8567 11.7721 51.853 11.7747L52.1405 12.1838M51.8641 11.767L51.8726 11.7616L52.1405 12.1838M51.8641 11.767C52.0512 11.6388 52.2728 11.5701 52.4999 11.5701C52.7269 11.5701 52.9485 11.6388 53.1356 11.767M52.1405 12.1838C52.2457 12.1098 52.3712 12.0701 52.4999 12.0701C52.6285 12.0701 52.754 12.1098 52.8592 12.1838M53.1356 11.767L53.1271 11.7616L52.8592 12.1838M53.1356 11.767L56.2003 13.7116C56.2069 13.7158 56.2135 13.7202 56.2199 13.7247C56.2521 13.7474 56.2765 13.7509 56.2945 13.7501C56.3164 13.7492 56.3422 13.7408 56.3658 13.7233C56.3895 13.7057 56.4028 13.6851 56.4084 13.6687C56.4126 13.6563 56.4162 13.6367 56.4041 13.6028C56.3978 13.5852 56.3925 13.5673 56.3882 13.5492L55.5674 10.0701M53.1356 11.767C53.1394 11.7695 53.1431 11.7721 53.1467 11.7747L52.8592 12.1838M52.8592 12.1838L55.5674 10.0701M55.5674 10.0701C55.5706 10.0802 55.574 10.0902 55.5776 10.1001L56.0486 9.9325L55.562 10.0473L55.5674 10.0701ZM55.5674 10.0701C55.4988 9.85855 55.4957 9.63092 55.5587 9.41712C55.6227 9.20028 55.7515 9.00844 55.9277 8.86731M55.9277 8.86731L55.9154 8.8783L56.2499 9.25L55.9451 8.8536C55.9393 8.85811 55.9334 8.86268 55.9277 8.86731ZM55.9277 8.86731L58.1779 6.84268C58.187 6.83453 58.1964 6.82671 58.206 6.81924C58.2352 6.79661 58.2436 6.77718 58.2471 6.7641C58.2515 6.74759 58.2516 6.72519 58.2431 6.70078C58.2345 6.67637 58.2199 6.65748 58.204 6.64566C58.1909 6.63585 58.1695 6.625 58.1305 6.625H54.9516M54.9516 6.625C54.9519 6.625 54.9522 6.625 54.9524 6.625L54.9511 6.125V6.625H54.9516Z"
            stroke="#222222" stroke-linecap="round" stroke-linejoin="round" />
    <path
            d="M67.3826 2.33804L66.097 5.89915L66.0933 5.90939L66.0932 5.90935C66.0117 6.12062 65.868 6.30215 65.681 6.42994C65.4944 6.55755 65.2734 6.62555 65.0473 6.625M67.3826 2.33804L65.048 6.125M67.3826 2.33804C67.3847 2.33303 67.3867 2.32798 67.3886 2.32289C67.4001 2.29268 67.4151 2.27816 67.4292 2.26907C67.446 2.25819 67.4706 2.25 67.4996 2.25C67.5287 2.25 67.5533 2.25819 67.5704 2.26917C67.5842 2.27808 67.5988 2.29216 67.6102 2.32069L68.9021 5.89915L68.902 5.8992L68.906 5.90967C68.9876 6.12075 69.1313 6.30212 69.3181 6.42983C69.5047 6.55738 69.7256 6.62542 69.9516 6.625M67.3826 2.33804L70.5674 10.0701M65.0473 6.625C65.047 6.625 65.0467 6.625 65.0463 6.625L65.048 6.125M65.0473 6.625H65.048V6.125M65.0473 6.625H61.8686C61.8301 6.625 61.8089 6.6357 61.7957 6.64556C61.7798 6.65743 61.7651 6.67642 61.7565 6.70092C61.7479 6.72541 61.7481 6.74776 61.7525 6.76414C61.7559 6.77705 61.7642 6.79639 61.7935 6.81904C61.8032 6.82657 61.8126 6.83445 61.8218 6.84268L64.0721 8.86731M65.048 6.125H61.8686C61.2824 6.125 61.0249 6.85625 61.4874 7.21438L63.7499 9.25M64.0721 8.86731C64.0663 8.86268 64.0605 8.85811 64.0546 8.8536L63.7499 9.25M64.0721 8.86731L64.0843 8.8783L63.7499 9.25M64.0721 8.86731C64.2482 9.00845 64.3771 9.20028 64.441 9.41712C64.5041 9.63092 64.5009 9.85855 64.4324 10.0701M63.7499 9.25C63.8512 9.32791 63.9253 9.43592 63.9614 9.55854C63.9976 9.68115 63.994 9.81207 63.9511 9.9325M63.9511 9.9325L64.4378 10.0473L64.4324 10.0701M63.9511 9.9325L63.1249 13.4344L67.1405 12.1838M63.9511 9.9325L64.4222 10.1001C64.4257 10.0902 64.4291 10.0802 64.4324 10.0701M64.4324 10.0701L63.6115 13.5492C63.6072 13.5674 63.6019 13.5854 63.5956 13.603C63.5836 13.6365 63.5872 13.6558 63.5914 13.6682C63.597 13.6847 63.6103 13.7054 63.6341 13.7231C63.6579 13.7407 63.6839 13.7491 63.7057 13.75C63.7236 13.7508 63.7477 13.7473 63.7796 13.7249C63.7861 13.7203 63.7927 13.7158 63.7995 13.7116L66.8641 11.767M66.8641 11.767C66.8604 11.7695 66.8567 11.7721 66.853 11.7747L67.1405 12.1838M66.8641 11.767L66.8726 11.7616L67.1405 12.1838M66.8641 11.767C67.0512 11.6388 67.2728 11.5701 67.4999 11.5701C67.7269 11.5701 67.9485 11.6388 68.1356 11.767M67.1405 12.1838C67.2457 12.1098 67.3712 12.0701 67.4999 12.0701C67.6285 12.0701 67.754 12.1098 67.8592 12.1838M68.1356 11.767L68.1271 11.7616L67.8592 12.1838M68.1356 11.767L71.2003 13.7116C71.2069 13.7158 71.2135 13.7202 71.2199 13.7247C71.2521 13.7474 71.2765 13.7509 71.2945 13.7501C71.3164 13.7492 71.3422 13.7408 71.3658 13.7233C71.3895 13.7057 71.4028 13.6851 71.4084 13.6687C71.4126 13.6563 71.4162 13.6367 71.4041 13.6028C71.3978 13.5852 71.3925 13.5673 71.3882 13.5492L70.5674 10.0701M68.1356 11.767C68.1394 11.7695 68.1431 11.7721 68.1467 11.7747L67.8592 12.1838M67.8592 12.1838L70.5674 10.0701M70.5674 10.0701C70.5706 10.0802 70.574 10.0902 70.5776 10.1001L71.0486 9.9325L70.562 10.0473L70.5674 10.0701ZM70.5674 10.0701C70.4988 9.85855 70.4957 9.63092 70.5587 9.41712C70.6227 9.20028 70.7515 9.00844 70.9277 8.86731M70.9277 8.86731L70.9154 8.8783L71.2499 9.25L70.9451 8.8536C70.9393 8.85811 70.9334 8.86268 70.9277 8.86731ZM70.9277 8.86731L73.1779 6.84268C73.187 6.83453 73.1964 6.82671 73.206 6.81924C73.2352 6.79661 73.2436 6.77718 73.2471 6.7641C73.2515 6.74759 73.2516 6.72519 73.2431 6.70078C73.2345 6.67637 73.2199 6.65748 73.204 6.64566C73.1909 6.63585 73.1695 6.625 73.1305 6.625H69.9516M69.9516 6.625C69.9519 6.625 69.9522 6.625 69.9524 6.625L69.9511 6.125V6.625H69.9516Z"
            stroke="#222222" stroke-linecap="round" stroke-linejoin="round" />
</svg>