<svg class="play" width="31" height="31" viewBox="0 0 31 31" fill="none"
     xmlns="http://www.w3.org/2000/svg">
    <path
            d="M15.2812 2.125C18.7622 2.125 22.1006 3.50781 24.562 5.96922C27.0234 8.43064 28.4062 11.769 28.4062 15.25C28.4062 18.731 27.0234 22.0694 24.562 24.5308C22.1006 26.9922 18.7622 28.375 15.2812 28.375C11.8003 28.375 8.46189 26.9922 6.00047 24.5308C3.53906 22.0694 2.15625 18.731 2.15625 15.25C2.15625 11.769 3.53906 8.43064 6.00047 5.96922C8.46189 3.50781 11.8003 2.125 15.2812 2.125ZM15.2812 26.5C18.2649 26.5 21.1264 25.3147 23.2362 23.205C25.346 21.0952 26.5312 18.2337 26.5312 15.25C26.5312 12.2663 25.346 9.40483 23.2362 7.29505C21.1264 5.18526 18.2649 4 15.2812 4C12.2976 4 9.43608 5.18526 7.3263 7.29505C5.21651 9.40483 4.03125 12.2663 4.03125 15.25C4.03125 18.2337 5.21651 21.0952 7.3263 23.205C9.43608 25.3147 12.2976 26.5 15.2812 26.5ZM13.875 19.2456L19.8694 15.25L13.875 11.2544V19.2456ZM14.1862 9.20687L21.495 14.08C21.6876 14.2084 21.8455 14.3824 21.9547 14.5865C22.0639 14.7906 22.1211 15.0185 22.1211 15.25C22.1211 15.4815 22.0639 15.7094 21.9547 15.9135C21.8455 16.1176 21.6876 16.2916 21.495 16.42L14.1862 21.2931C13.9745 21.4343 13.7284 21.5153 13.4741 21.5276C13.2199 21.5399 12.9671 21.483 12.7427 21.3629C12.5183 21.2428 12.3307 21.0641 12.1999 20.8457C12.0691 20.6274 12 20.3776 12 20.1231V10.375C12 10.1205 12.0691 9.87074 12.1999 9.65241C12.3307 9.43407 12.5183 9.25533 12.7427 9.13524C12.9671 9.01514 13.2199 8.95821 13.4741 8.97049C13.7284 8.98278 13.9745 9.06383 14.1862 9.205V9.20687Z"
            fill="#222222" />
</svg>