<svg width="21" height="24" viewBox="0 0 21 24" fill="none" xmlns="http://www.w3.org/2000/svg">
  <path d="M1.5 4.1875V19.805" stroke="#CB5715" stroke-width="1.5" stroke-linecap="round" />
  <path d="M20.25 8.875V19.8125" stroke="#CB5715" stroke-width="1.5" stroke-linecap="round"
      stroke-linejoin="round" />
  <path d="M4.625 1.0625H12.4375" stroke="#CB5715" stroke-width="1.5" stroke-linecap="round"
      stroke-linejoin="round" />
  <path d="M4.625 22.9375H17.125" stroke="#CB5715" stroke-width="1.5"
      stroke-linecap="round" />
  <path d="M20.25 19.8125C20.2585 21.3732 18.6875 22.9375 17.125 22.9375" stroke="#CB5715"
      stroke-width="1.5" stroke-linecap="round" stroke-linejoin="round" />
  <path d="M1.5 19.8125C1.5 21.375 3.0625 22.9375 4.625 22.9375" stroke="#CB5715"
      stroke-width="1.5" stroke-linecap="round" stroke-linejoin="round" />
  <path d="M1.5 4.18518C1.5 2.62495 3.0625 1.09725 4.625 1.06245" stroke="#CB5715"
      stroke-width="1.5" stroke-linecap="round" stroke-linejoin="round" />
  <path d="M20.2415 8.88201L12.4375 1.0625" stroke="#CB5715" stroke-width="1.5"
      stroke-linecap="round" stroke-linejoin="round" />
  <path d="M12.4375 5.75C12.4423 7.304 14.0063 8.875 15.5625 8.875" stroke="#CB5715"
      stroke-width="1.5" stroke-linecap="round" stroke-linejoin="round" />
  <path d="M12.4375 5.75V1.0625" stroke="#CB5715" stroke-width="1.5" stroke-linecap="round"
      stroke-linejoin="round" />
  <path d="M15.5625 8.875H20.25" stroke="#CB5715" stroke-width="1.5" stroke-linecap="round"
      stroke-linejoin="round" />
  <path d="M4.625 17.3125H9.3125" stroke="#CB5715" stroke-width="1.3" stroke-linecap="round"
      stroke-linejoin="round" />
  <path d="M4.625 14.1875H12.4375" stroke="#CB5715" stroke-width="1.3" stroke-linecap="round"
      stroke-linejoin="round" />
  <path d="M4.625 11.0625H9.3125" stroke="#CB5715" stroke-width="1.3" stroke-linecap="round"
      stroke-linejoin="round" />
</svg>