<svg width="14" height="14" viewBox="0 0 14 14" fill="none" xmlns="http://www.w3.org/2000/svg">
  <path fill-rule="evenodd" clip-rule="evenodd"
      d="M12.7023 0.85832C12.7488 0.904765 12.7858 0.959941 12.811 1.02069C12.8362 1.08143 12.8492 1.14655 12.8492 1.21232C12.8492 1.27809 12.8362 1.34321 12.811 1.40395C12.7858 1.4647 12.7488 1.51987 12.7023 1.56632L1.70229 12.5663C1.6084 12.6602 1.48106 12.713 1.34829 12.713C1.21551 12.713 1.08817 12.6602 0.994288 12.5663C0.900401 12.4724 0.847656 12.3451 0.847656 12.2123C0.847656 12.0795 0.900401 11.9522 0.994288 11.8583L11.9943 0.85832C12.0407 0.811756 12.0959 0.774814 12.1567 0.749607C12.2174 0.724401 12.2825 0.711426 12.3483 0.711426C12.4141 0.711426 12.4792 0.724401 12.5399 0.749607C12.6007 0.774814 12.6558 0.811756 12.7023 0.85832Z"
      fill="#CB5715" stroke="#CB5715" />
  <path fill-rule="evenodd" clip-rule="evenodd"
      d="M0.99455 0.85832C0.947987 0.904765 0.911044 0.959941 0.885838 1.02069C0.860631 1.08143 0.847656 1.14655 0.847656 1.21232C0.847656 1.27809 0.860631 1.34321 0.885838 1.40395C0.911044 1.4647 0.947987 1.51987 0.99455 1.56632L11.9945 12.5663C12.0884 12.6602 12.2158 12.713 12.3485 12.713C12.4813 12.713 12.6087 12.6602 12.7025 12.5663C12.7964 12.4724 12.8492 12.3451 12.8492 12.2123C12.8492 12.0795 12.7964 11.9522 12.7025 11.8583L1.70255 0.85832C1.6561 0.811756 1.60093 0.774814 1.54018 0.749607C1.47944 0.724401 1.41432 0.711426 1.34855 0.711426C1.28278 0.711426 1.21766 0.724401 1.15692 0.749607C1.09617 0.774814 1.041 0.811756 0.99455 0.85832Z"
      fill="#CB5715" stroke="#CB5715" />
</svg>