<svg width="11" height="16" viewBox="0 0 11 16" fill="none" xmlns="http://www.w3.org/2000/svg">
    <path
            d="M1.04713 0.706139C0.812078 0.922688 0.68003 1.21635 0.68003 1.52255C0.68003 1.82875 0.812078 2.12242 1.04713 2.33897L7.25356 8.05501L1.04713 13.7711C0.818739 13.9889 0.69236 14.2805 0.695217 14.5833C0.698073 14.8861 0.829937 15.1757 1.06241 15.3898C1.29488 15.6039 1.60935 15.7254 1.9381 15.728C2.26685 15.7306 2.58357 15.6142 2.82004 15.4039L9.91293 8.87143C10.148 8.65488 10.28 8.36121 10.28 8.05501C10.28 7.74881 10.148 7.45515 9.91293 7.2386L2.82004 0.706139C2.58491 0.489656 2.26606 0.368042 1.93359 0.368042C1.60112 0.368042 1.28226 0.489656 1.04713 0.706139Z"
            fill="#CB5715" />
</svg>