<svg width="24" height="21" viewBox="0 0 24 21" fill="none" xmlns="http://www.w3.org/2000/svg">
  <mask id="path-1-inside-1_664_2368" fill="white">
    <path
      d="M22.6744 4.3486C22.3253 3.54655 21.8219 2.81975 21.1924 2.20886C20.5625 1.59616 19.8198 1.10925 19.0047 0.774616C18.1595 0.426245 17.253 0.247928 16.3377 0.250018C15.0537 0.250018 13.801 0.598889 12.7123 1.25787C12.4519 1.4155 12.2044 1.58865 11.97 1.7773C11.7356 1.58865 11.4882 1.4155 11.2278 1.25787C10.1391 0.598889 8.88635 0.250018 7.60235 0.250018C6.67777 0.250018 5.78183 0.425746 4.93538 0.774616C4.11758 1.11057 3.38051 1.59382 2.74763 2.20886C2.11734 2.81906 1.61385 3.54604 1.26569 4.3486C0.903667 5.18331 0.71875 6.0697 0.71875 6.98193C0.71875 7.84248 0.895854 8.7392 1.24746 9.65144C1.54176 10.4138 1.96368 11.2046 2.50281 12.0031C3.35707 13.2668 4.53169 14.5847 5.99019 15.9208C8.40713 18.1355 10.8006 19.6653 10.9022 19.7273L11.5195 20.1201C11.7929 20.2933 12.1445 20.2933 12.418 20.1201L13.0353 19.7273C13.1368 19.6627 15.5277 18.1355 17.9473 15.9208C19.4058 14.5847 20.5804 13.2668 21.4347 12.0031C21.9738 11.2046 22.3983 10.4138 22.69 9.65144C23.0416 8.7392 23.2187 7.84248 23.2187 6.98193C23.2213 6.0697 23.0364 5.18331 22.6744 4.3486Z" />
  </mask>
  <path
    d="M22.6744 4.3486L24.5093 3.5528L24.5082 3.55041L22.6744 4.3486ZM21.1924 2.20886L19.798 3.64255L19.7996 3.6441L21.1924 2.20886ZM19.0047 0.774616L18.2426 2.62371L18.2451 2.62477L19.0047 0.774616ZM16.3377 0.250018V2.25002L16.3423 2.25001L16.3377 0.250018ZM12.7123 1.25787L13.7479 2.96887L13.748 2.96883L12.7123 1.25787ZM11.97 1.7773L10.7161 3.33537L11.97 4.34456L13.224 3.33537L11.97 1.7773ZM11.2278 1.25787L10.1921 2.96883L10.1922 2.96887L11.2278 1.25787ZM4.93538 0.774616L5.69535 2.6246L5.6975 2.62372L4.93538 0.774616ZM2.74763 2.20886L4.13875 3.6458L4.14148 3.64315L2.74763 2.20886ZM1.26569 4.3486L-0.569106 3.55265L-0.569171 3.55281L1.26569 4.3486ZM1.24746 9.65144L-0.618724 10.3707L-0.618336 10.3717L1.24746 9.65144ZM2.50281 12.0031L0.845226 13.1222L0.845887 13.1232L2.50281 12.0031ZM5.99019 15.9208L7.34135 14.4462L7.34113 14.446L5.99019 15.9208ZM10.9022 19.7273L11.976 18.04L11.9603 18.0301L11.9445 18.0204L10.9022 19.7273ZM11.5195 20.1201L10.4457 21.8075L10.4496 21.8099L11.5195 20.1201ZM12.418 20.1201L13.4879 21.8099L13.4918 21.8075L12.418 20.1201ZM13.0353 19.7273L11.9619 18.0398L11.9615 18.04L13.0353 19.7273ZM17.9473 15.9208L19.2977 17.3961L19.2982 17.3955L17.9473 15.9208ZM21.4347 12.0031L23.0916 13.1232L23.0922 13.1222L21.4347 12.0031ZM22.69 9.65144L20.8238 8.93215L20.8221 8.9367L22.69 9.65144ZM23.2187 6.98193L21.2187 6.97622V6.98193H23.2187ZM24.5082 3.55041C24.0548 2.50862 23.4014 1.56557 22.5853 0.773624L19.7996 3.6441C20.2425 4.07393 20.5958 4.58449 20.8406 5.1468L24.5082 3.55041ZM22.5869 0.775176C21.7734 -0.0161096 20.815 -0.644163 19.7643 -1.07554L18.2451 2.62477C18.8246 2.86266 19.3516 3.20842 19.798 3.64255L22.5869 0.775176ZM19.7668 -1.07447C18.6782 -1.52319 17.5111 -1.75267 16.3332 -1.74998L16.3423 2.25001C16.9948 2.24852 17.6408 2.37568 18.2426 2.62371L19.7668 -1.07447ZM16.3377 -1.74998C14.6911 -1.74998 13.0798 -1.30243 11.6767 -0.4531L13.748 2.96883C14.5222 2.50021 15.4164 2.25002 16.3377 2.25002V-1.74998ZM11.6767 -0.453136C11.3411 -0.24998 11.0206 -0.0258586 10.7161 0.21922L13.224 3.33537C13.3883 3.20315 13.5627 3.08099 13.7479 2.96887L11.6767 -0.453136ZM13.224 0.21922C12.9195 -0.0258572 12.599 -0.249979 12.2634 -0.453136L10.1922 2.96887C10.3774 3.08099 10.5518 3.20315 10.7161 3.33537L13.224 0.21922ZM12.2634 -0.4531C10.8603 -1.30243 9.24901 -1.74998 7.60235 -1.74998V2.25002C8.52369 2.25002 9.41791 2.50021 10.1921 2.96883L12.2634 -0.4531ZM7.60235 -1.74998C6.42008 -1.74998 5.26491 -1.52442 4.17326 -1.07448L5.6975 2.62372C6.29875 2.37591 6.93545 2.25002 7.60235 2.25002V-1.74998ZM4.17541 -1.07537C3.1221 -0.642675 2.1698 -0.0184453 1.35377 0.77458L4.14148 3.64315C4.59123 3.20608 5.11305 2.86381 5.69535 2.6246L4.17541 -1.07537ZM1.35651 0.771927C0.538255 1.56409 -0.116232 2.5087 -0.569106 3.55265L3.10048 5.14455C3.34393 4.58337 3.69642 4.07402 4.13875 3.6458L1.35651 0.771927ZM-0.569171 3.55281C-1.0397 4.63769 -1.28125 5.79485 -1.28125 6.98193H2.71875C2.71875 6.34455 2.84703 5.72893 3.10055 5.1444L-0.569171 3.55281ZM-1.28125 6.98193C-1.28125 8.11852 -1.04727 9.25886 -0.618724 10.3707L3.11364 8.93215C2.83898 8.21955 2.71875 7.56643 2.71875 6.98193H-1.28125ZM-0.618336 10.3717C-0.261367 11.2964 0.236208 12.2201 0.845226 13.1222L4.16039 10.884C3.69116 10.189 3.34489 9.53117 3.11325 8.93115L-0.618336 10.3717ZM0.845887 13.1232C1.80992 14.5492 3.09833 15.984 4.63924 17.3955L7.34113 14.446C5.96504 13.1854 4.90423 11.9843 4.15973 10.883L0.845887 13.1232ZM4.63902 17.3953C7.17699 19.7209 9.68268 21.3261 9.85994 21.4343L11.9445 18.0204C11.9507 18.0242 11.3733 17.6585 10.4942 17.0163C9.6217 16.379 8.48036 15.4899 7.34135 14.4462L4.63902 17.3953ZM9.82845 21.4147L10.4457 21.8075L12.5932 18.4328L11.976 18.04L9.82845 21.4147ZM10.4496 21.8099C11.3763 22.3967 12.5611 22.3967 13.4879 21.8099L11.3481 18.4304C11.728 18.1899 12.2095 18.1899 12.5893 18.4304L10.4496 21.8099ZM13.4918 21.8075L14.109 21.4147L11.9615 18.04L11.3443 18.4328L13.4918 21.8075ZM14.1086 21.4149C14.2497 21.3252 16.7526 19.7256 19.2977 17.3961L16.5969 14.4455C14.3028 16.5453 12.024 18.0003 11.9619 18.0398L14.1086 21.4149ZM19.2982 17.3955C20.8391 15.984 22.1276 14.5492 23.0916 13.1232L19.7777 10.883C19.0332 11.9843 17.9724 13.1854 16.5963 14.446L19.2982 17.3955ZM23.0922 13.1222C23.6989 12.2237 24.2015 11.2978 24.5579 10.3662L20.8221 8.9367C20.5951 9.5298 20.2487 10.1855 19.7771 10.884L23.0922 13.1222ZM24.5562 10.3707C24.9847 9.25886 25.2187 8.11852 25.2187 6.98193H21.2187C21.2187 7.56643 21.0985 8.21955 20.8238 8.93215L24.5562 10.3707ZM25.2187 6.98764C25.2221 5.79669 24.9798 4.63765 24.5092 3.55281L20.8395 5.1444C21.0931 5.72897 21.2205 6.34271 21.2187 6.97622L25.2187 6.98764Z"
    fill="#CB5715" mask="url(#path-1-inside-1_664_2368)" />
</svg>