<svg width="28" height="22" viewBox="0 0 28 22" fill="none" xmlns="http://www.w3.org/2000/svg">
<path d="M28 2.60362C26.9678 3.04671 25.8614 3.3442 24.6983 3.47924C25.8854 2.79141 26.7976 1.70269 27.2253 0.407212C26.1167 1.04229 24.8838 1.50436 23.5767 1.75333C22.5292 0.67306 21.0366 0 19.3846 0C16.2117 0 13.6388 2.48547 13.6388 5.55328C13.6388 5.98792 13.6912 6.41201 13.7894 6.81922C9.01473 6.58713 4.78341 4.37595 1.94872 1.01487C1.45336 1.83773 1.17185 2.79141 1.17185 3.80838C1.17185 5.73473 2.1844 7.43531 3.72722 8.4333C2.78451 8.40376 1.89853 8.15268 1.12384 7.73703C1.12384 7.76024 1.12384 7.78345 1.12384 7.80666C1.12384 10.4989 3.10529 12.7417 5.7305 13.2544C5.25041 13.381 4.74195 13.4485 4.21822 13.4485C3.84724 13.4485 3.48718 13.4148 3.13584 13.3473C3.86907 15.5521 5.99018 17.162 8.50191 17.2063C6.53792 18.6959 4.0611 19.582 1.36825 19.582C0.903437 19.582 0.447354 19.5567 0 19.504C2.5401 21.0822 5.56028 22 8.80524 22C19.3715 22 25.15 13.5372 25.15 6.19891C25.15 5.95838 25.1435 5.71574 25.1348 5.47943C26.2564 4.69665 27.2297 3.71766 28 2.60362Z" fill="white"/>
</svg>
