<svg width="8" height="13" viewBox="0 0 8 13" fill="none" xmlns="http://www.w3.org/2000/svg">
    <path
        d="M0.962232 12.4662C0.786477 12.2904 0.687744 12.052 0.687744 11.8034C0.687744 11.5548 0.786477 11.3164 0.962232 11.1406L5.60286 6.49998L0.962232 1.85935C0.791458 1.68254 0.696963 1.44572 0.699099 1.19991C0.701235 0.954105 0.799831 0.718968 0.973652 0.545148C1.14747 0.371328 1.38261 0.272734 1.62842 0.270597C1.87423 0.268461 2.11104 0.362956 2.28786 0.53373L7.59129 5.83717C7.76705 6.01298 7.86578 6.25139 7.86578 6.49998C7.86578 6.74857 7.76705 6.98699 7.59129 7.16279L2.28786 12.4662C2.11205 12.642 1.87364 12.7407 1.62504 12.7407C1.37645 12.7407 1.13804 12.642 0.962232 12.4662Z"
        fill="white" />
</svg>