<svg width="23" height="20" viewBox="0 0 23 20" fill="none" xmlns="http://www.w3.org/2000/svg">
  <mask id="path-1-inside-1_726_6680" fill="white">
      <path
          d="M22.4556 4.0986C22.1065 3.29655 21.6032 2.56975 20.9737 1.95886C20.3438 1.34616 19.601 0.85925 18.7859 0.524616C17.9407 0.176245 17.0342 -0.002072 16.119 1.81642e-05C14.835 1.81642e-05 13.5822 0.348889 12.4936 1.00787C12.2331 1.1655 11.9857 1.33865 11.7513 1.5273C11.5169 1.33865 11.2695 1.1655 11.009 1.00787C9.92035 0.348889 8.6676 1.81642e-05 7.3836 1.81642e-05C6.45902 1.81642e-05 5.56308 0.175746 4.71663 0.524616C3.89883 0.860566 3.16176 1.34382 2.52888 1.95886C1.89859 2.56906 1.3951 3.29604 1.04694 4.0986C0.684917 4.93331 0.5 5.8197 0.5 6.73193C0.5 7.59248 0.677104 8.4892 1.02871 9.40144C1.32301 10.1638 1.74493 10.9546 2.28406 11.7531C3.13832 13.0168 4.31294 14.3347 5.77144 15.6708C8.18838 17.8855 10.5819 19.4153 10.6835 19.4773L11.3007 19.8701C11.5742 20.0433 11.9258 20.0433 12.1993 19.8701L12.8165 19.4773C12.9181 19.4127 15.309 17.8855 17.7285 15.6708C19.187 14.3347 20.3617 13.0168 21.2159 11.7531C21.755 10.9546 22.1796 10.1638 22.4713 9.40144C22.8229 8.4892 23 7.59248 23 6.73193C23.0026 5.8197 22.8177 4.93331 22.4556 4.0986Z" />
  </mask>
  <path
      d="M22.4556 4.0986L23.8318 3.50175L23.831 3.49996L22.4556 4.0986ZM20.9737 1.95886L19.9278 3.03413L19.929 3.03529L20.9737 1.95886ZM18.7859 0.524616L18.2143 1.91144L18.2163 1.91223L18.7859 0.524616ZM16.119 1.81642e-05V1.50002L16.1224 1.50001L16.119 1.81642e-05ZM12.4936 1.00787L13.2703 2.29112L13.2703 2.29109L12.4936 1.00787ZM11.7513 1.5273L10.8108 2.69585L11.7513 3.45275L12.6918 2.69585L11.7513 1.5273ZM11.009 1.00787L10.2323 2.29109L10.2323 2.29112L11.009 1.00787ZM4.71663 0.524616L5.2866 1.91211L5.28822 1.91144L4.71663 0.524616ZM2.52888 1.95886L3.57222 3.03657L3.57427 3.03457L2.52888 1.95886ZM1.04694 4.0986L-0.329157 3.50164L-0.329206 3.50175L1.04694 4.0986ZM1.02871 9.40144L-0.370929 9.9409L-0.370638 9.94165L1.02871 9.40144ZM2.28406 11.7531L1.04087 12.5924L1.04137 12.5932L2.28406 11.7531ZM5.77144 15.6708L6.78481 14.5648L6.78465 14.5647L5.77144 15.6708ZM10.6835 19.4773L11.4888 18.2119L11.477 18.2044L11.4652 18.1971L10.6835 19.4773ZM11.3007 19.8701L10.4954 21.1356L10.4983 21.1375L11.3007 19.8701ZM12.1993 19.8701L13.0017 21.1375L13.0046 21.1356L12.1993 19.8701ZM12.8165 19.4773L12.0115 18.2117L12.0112 18.2119L12.8165 19.4773ZM17.7285 15.6708L18.7413 16.7772L18.7417 16.7768L17.7285 15.6708ZM21.2159 11.7531L22.4586 12.5932L22.4591 12.5924L21.2159 11.7531ZM22.4713 9.40144L21.0716 8.86197L21.0703 8.86539L22.4713 9.40144ZM23 6.73193L21.5 6.72765V6.73193H23ZM23.831 3.49996C23.4036 2.5181 22.7877 1.62911 22.0184 0.882434L19.929 3.03529C20.4186 3.51038 20.8094 4.07501 21.0803 4.69725L23.831 3.49996ZM22.0196 0.883597C21.2519 0.136957 20.3475 -0.45581 19.3556 -0.862997L18.2163 1.91223C18.8546 2.17431 19.4356 2.55536 19.9278 3.03413L22.0196 0.883597ZM19.3576 -0.862202C18.3298 -1.28583 17.2278 -1.50252 16.1156 -1.49998L16.1224 1.50001C16.8406 1.49837 17.5517 1.63832 18.2143 1.91143L19.3576 -0.862202ZM16.119 -1.49998C14.563 -1.49998 13.0413 -1.0771 11.7168 -0.275358L13.2703 2.29109C14.1231 1.77488 15.107 1.50002 16.119 1.50002V-1.49998ZM11.7169 -0.275385C11.4 -0.0836087 11.0978 0.127768 10.8108 0.358739L12.6918 2.69585C12.8736 2.54953 13.0662 2.41462 13.2703 2.29112L11.7169 -0.275385ZM12.6918 0.358739C12.4048 0.127769 12.1026 -0.0836078 11.7857 -0.275385L10.2323 2.29112C10.4364 2.41462 10.629 2.54953 10.8108 2.69585L12.6918 0.358739ZM11.7858 -0.275358C10.4612 -1.0771 8.9396 -1.49998 7.3836 -1.49998V1.50002C8.39561 1.50002 9.37946 1.77488 10.2323 2.29109L11.7858 -0.275358ZM7.3836 -1.49998C6.26575 -1.49998 5.17539 -1.28688 4.14504 -0.862209L5.28822 1.91144C5.95077 1.63837 6.65228 1.50002 7.3836 1.50002V-1.49998ZM4.14665 -0.862874C3.15222 -0.454365 2.25373 0.13462 1.48349 0.88315L3.57427 3.03457C4.0698 2.55301 4.64543 2.1755 5.2866 1.91211L4.14665 -0.862874ZM1.48554 0.881161C0.714276 1.62783 0.0975378 2.51804 -0.329157 3.50164L2.42303 4.69556C2.69266 4.07404 3.0829 3.51028 3.57222 3.03656L1.48554 0.881161ZM-0.329206 3.50175C-0.772605 4.52409 -1 5.61356 -1 6.73193H2C2 6.02584 2.14244 5.34252 2.42308 4.69545L-0.329206 3.50175ZM-1 6.73193C-1 7.79951 -0.780239 8.87895 -0.370929 9.9409L2.42834 8.86197C2.13445 8.09946 2 7.38544 2 6.73193H-1ZM-0.370638 9.94165C-0.029335 10.8257 0.449327 11.7163 1.04087 12.5924L3.52725 10.9137C3.04054 10.1929 2.67536 9.50182 2.42805 8.86122L-0.370638 9.94165ZM1.04137 12.5932C1.97796 13.9786 3.23792 15.3842 4.75823 16.7768L6.78465 14.5647C5.38795 13.2853 4.29869 12.0549 3.52675 10.913L1.04137 12.5932ZM4.75806 16.7767C7.26578 19.0746 9.74342 20.6609 9.90176 20.7576L11.4652 18.1971C11.4691 18.1995 11.3227 18.1073 11.0527 17.9249C10.7897 17.7473 10.4207 17.4916 9.9805 17.17C9.09784 16.5253 7.94119 15.6245 6.78481 14.5648L4.75806 16.7767ZM9.87814 20.7428L10.4954 21.1356L12.106 18.6047L11.4888 18.2119L9.87814 20.7428ZM10.4983 21.1375C11.2617 21.6208 12.2382 21.6208 13.0017 21.1375L11.3969 18.6028C11.6133 18.4657 11.8866 18.4657 12.1031 18.6028L10.4983 21.1375ZM13.0046 21.1356L13.6218 20.7428L12.0112 18.2119L11.3939 18.6047L13.0046 21.1356ZM13.6215 20.743C13.7527 20.6596 16.2277 19.0781 18.7413 16.7772L16.7158 14.5643C14.3903 16.6928 12.0835 18.1659 12.0115 18.2117L13.6215 20.743ZM18.7417 16.7768C20.2621 15.3842 21.522 13.9786 22.4586 12.5932L19.9732 10.913C19.2013 12.0549 18.112 13.2853 16.7153 14.5647L18.7417 16.7768ZM22.4591 12.5924C23.0489 11.7189 23.5319 10.8268 23.8722 9.93749L21.0703 8.86539C20.8272 9.5008 20.4612 10.1902 19.9727 10.9137L22.4591 12.5924ZM23.8709 9.9409C24.2802 8.87895 24.5 7.79951 24.5 6.73193H21.5C21.5 7.38544 21.3655 8.09946 21.0716 8.86197L23.8709 9.9409ZM24.5 6.73621C24.5032 5.61494 24.2752 4.52407 23.8318 3.50175L21.0795 4.69545C21.3602 5.34255 21.502 6.02446 21.5 6.72765L24.5 6.73621Z"
      fill="#CB5715" mask="url(#path-1-inside-1_726_6680)" />
</svg>